<?xml version="1.0" standalone="no"?>
<!DOCTYPE svg PUBLIC "-//W3C//DTD SVG 20010904//EN"
 "http://www.w3.org/TR/2001/REC-SVG-20010904/DTD/svg10.dtd">
<svg version="1.0" xmlns="http://www.w3.org/2000/svg"
 width="854.000000pt" height="854.000000pt" viewBox="0 0 854.000000 854.000000"
 preserveAspectRatio="xMidYMid meet">
<metadata>
Created by potrace 1.11, written by Peter Selinger 2001-2013
</metadata>
<g transform="translate(0.000000,854.000000) scale(0.100000,-0.100000)"
fill="#000000" stroke="none">
<path d="M4510 8342 c-19 -10 -53 -30 -75 -45 -22 -14 -96 -47 -165 -72 -109
-40 -409 -183 -785 -373 -60 -30 -166 -84 -235 -118 -161 -81 -250 -131 -325
-180 -33 -21 -95 -57 -137 -79 -43 -22 -121 -76 -175 -120 -124 -101 -365
-336 -406 -395 -16 -25 -55 -74 -85 -108 -62 -71 -120 -146 -172 -222 -19 -28
-77 -106 -127 -172 -53 -70 -93 -131 -93 -144 0 -12 -49 -118 -109 -236 -70
-137 -116 -241 -130 -293 -12 -44 -33 -108 -46 -143 -29 -73 -34 -180 -10
-226 8 -15 15 -37 15 -48 0 -24 18 -59 39 -75 43 -33 482 -244 516 -249 22 -3
68 -18 102 -32 48 -21 65 -34 74 -57 53 -140 104 -230 151 -267 22 -17 87 -82
144 -145 101 -111 104 -116 104 -161 0 -43 -4 -50 -58 -102 -31 -31 -84 -74
-118 -97 -33 -23 -94 -79 -135 -125 -41 -45 -84 -91 -97 -101 -12 -10 -31 -35
-41 -55 -10 -21 -46 -89 -81 -152 -34 -63 -72 -148 -85 -187 -13 -40 -42 -114
-63 -165 -22 -51 -49 -118 -62 -148 -35 -88 -111 -349 -119 -415 -9 -64 -26
-174 -42 -266 -11 -70 -12 -347 0 -459 5 -47 21 -121 35 -165 13 -44 33 -116
44 -160 44 -179 102 -323 152 -380 9 -11 46 -63 80 -115 35 -52 113 -147 174
-211 242 -253 331 -348 334 -359 6 -18 205 -192 232 -203 14 -5 77 -33 140
-62 142 -65 200 -85 270 -95 78 -11 176 -38 240 -65 50 -21 119 -48 280 -108
39 -14 84 -21 155 -23 55 -1 157 -8 226 -14 99 -10 139 -10 185 0 32 6 115 11
184 10 75 -1 161 5 215 14 58 10 140 15 230 13 106 -1 170 4 265 20 69 12 169
27 222 33 54 5 115 16 135 24 21 8 79 26 128 41 252 74 309 97 430 173 66 41
179 111 250 155 162 99 215 144 313 265 42 53 101 122 130 154 37 42 70 96
116 191 34 72 81 162 104 198 52 86 69 137 82 251 6 51 20 164 32 251 21 166
21 312 -2 432 -7 33 -13 98 -15 145 -1 47 -12 130 -23 185 -12 55 -28 138 -37
185 -9 47 -43 168 -76 270 -131 400 -142 426 -206 506 -84 104 -166 232 -198
310 -16 38 -44 91 -63 119 -112 159 -126 269 -57 430 16 37 24 79 28 159 7
127 10 132 108 182 37 18 99 61 138 96 59 51 71 68 71 93 0 31 19 127 39 201
6 23 21 56 34 75 36 53 39 66 48 199 5 69 13 161 19 205 5 44 14 145 19 225 5
80 14 173 19 205 24 138 42 256 53 340 6 50 16 107 21 128 8 33 5 46 -18 90
-35 69 -41 75 -88 99 -23 11 -59 37 -81 58 -22 20 -61 48 -87 62 -50 27 -131
88 -206 154 -26 23 -73 57 -104 77 -32 20 -83 57 -113 82 -31 24 -90 64 -133
87 -42 23 -93 57 -112 74 -19 17 -59 46 -89 64 -30 17 -73 46 -95 65 -23 18
-56 40 -75 50 -18 9 -54 32 -80 50 -25 18 -78 49 -117 68 -39 20 -98 58 -131
86 -34 28 -95 67 -137 86 -42 19 -95 52 -118 73 -24 22 -88 63 -143 92 -55 29
-113 63 -130 75 -34 25 -121 65 -141 65 -8 0 -13 3 -11 8 6 20 -81 106 -135
133 -66 33 -80 35 -128 11z m229 -1074 c46 -56 61 -77 61 -87 0 -18 54 -125
68 -134 6 -4 12 -12 12 -18 0 -5 23 -39 51 -74 28 -36 47 -65 42 -65 -4 0 -3
-4 2 -8 13 -8 105 -140 105 -149 0 -4 6 -14 14 -22 8 -9 26 -41 42 -71 15 -30
50 -80 76 -109 26 -30 48 -59 48 -63 0 -4 12 -8 28 -8 15 0 35 -7 45 -15 11
-7 25 -11 33 -8 8 3 21 0 29 -7 8 -7 26 -10 40 -6 14 4 34 2 46 -4 11 -6 43
-12 72 -14 29 -2 68 -10 87 -18 19 -8 44 -12 54 -8 24 8 76 0 76 -12 0 -5 9
-7 19 -3 23 7 71 -4 71 -16 0 -14 -51 -36 -101 -43 -35 -5 -51 -14 -68 -37
-13 -17 -28 -28 -35 -26 -14 6 -37 -11 -52 -38 -8 -14 -22 -20 -47 -20 -38 0
-84 -33 -59 -42 6 -3 12 -13 12 -23 0 -10 -6 -20 -12 -23 -10 -3 -9 -8 2 -21
13 -14 19 -14 42 -2 30 16 38 12 38 -17 0 -23 27 -57 46 -57 7 0 15 -13 19
-29 3 -16 13 -35 22 -42 8 -7 19 -23 24 -36 5 -14 17 -23 29 -23 23 0 26 -10
8 -29 -11 -10 -10 -14 5 -22 11 -6 17 -22 17 -44 0 -25 5 -35 20 -40 11 -3 23
-18 27 -33 3 -15 16 -37 27 -49 44 -47 56 -64 56 -78 0 -8 5 -15 10 -15 6 0
10 -6 10 -14 0 -13 29 -75 40 -86 3 -3 11 -15 18 -27 18 -34 -12 -31 -41 3
-40 48 -55 59 -107 77 -28 10 -54 25 -57 33 -3 8 -11 14 -19 14 -7 0 -29 14
-47 30 -19 17 -44 30 -56 30 -11 0 -21 5 -21 11 0 5 -16 17 -35 25 -19 8 -35
19 -35 25 0 15 -53 58 -72 59 -9 0 -30 12 -47 26 -26 21 -44 27 -99 29 -86 5
-120 17 -124 47 -2 14 -9 22 -18 21 -51 -7 -120 -31 -147 -51 -17 -12 -38 -19
-46 -16 -18 6 -114 -42 -142 -72 -5 -6 -39 -28 -75 -48 -36 -20 -94 -55 -130
-77 -36 -21 -89 -50 -117 -64 -42 -20 -53 -31 -53 -49 0 -28 -24 -41 -40 -21
-12 15 -10 65 8 160 5 28 15 91 22 140 7 50 18 101 26 115 19 36 44 117 44
143 0 32 -10 43 -52 56 -20 7 -42 19 -49 27 -7 8 -32 24 -56 35 -24 11 -46 26
-50 34 -3 10 -13 13 -28 9 -17 -4 -25 -1 -29 14 -4 11 -33 31 -69 48 l-62 29
43 3 c50 4 61 32 12 32 -16 0 -30 4 -30 9 0 15 18 23 25 11 4 -6 10 -8 15 -5
4 3 23 7 41 9 19 3 70 14 113 26 47 13 93 20 113 17 25 -5 43 0 70 19 20 13
41 24 47 24 6 1 1 9 -11 19 -24 20 -30 50 -14 67 5 5 11 25 13 44 2 28 11 40
46 63 47 32 51 48 22 77 -18 18 -20 29 -15 73 3 29 6 59 6 67 1 8 6 31 12 50
6 19 10 40 9 47 -2 7 4 39 13 72 8 32 15 77 15 99 0 23 5 44 10 47 6 3 10 25
10 48 0 75 15 104 39 75z m521 -622 c0 -22 -19 -30 -35 -16 -22 18 -18 30 10
30 15 0 25 -6 25 -14z m44 -71 c18 -27 20 -35 8 -35 -15 0 -53 41 -47 51 10
15 22 10 39 -16z m523 -182 c-9 -9 -19 -14 -23 -11 -10 10 6 28 24 28 15 0 15
-1 -1 -17z m-1693 -94 c-3 -5 -14 -5 -25 1 -26 14 -24 18 6 12 14 -2 22 -8 19
-13z m1656 -550 c0 -6 -4 -7 -10 -4 -5 3 -10 11 -10 16 0 6 5 7 10 4 6 -3 10
-11 10 -16z m-820 -851 c0 -13 -32 -6 -37 9 -3 7 3 9 16 6 12 -3 21 -10 21
-15z m-690 -23 c0 -12 -55 -25 -82 -20 -45 10 -32 22 27 24 30 1 55 -1 55 -4z
m197 -41 c-12 -12 -37 5 -30 21 5 15 7 15 21 1 9 -9 13 -18 9 -22z m-367 19
c0 -5 -6 -15 -13 -25 -16 -21 -109 -27 -131 -9 -12 10 -20 10 -43 -1 -17 -8
-40 -11 -58 -7 -28 6 -29 8 -7 10 4 0 14 7 22 14 8 8 40 15 70 18 108 7 160 7
160 0z m1735 -4 c10 -15 -4 -61 -15 -54 -6 3 -10 13 -10 22 0 9 -8 22 -17 29
-16 12 -16 13 9 14 15 0 30 -5 33 -11z m-1625 -123 c0 -3 -4 -8 -10 -11 -5 -3
-10 -1 -10 4 0 6 5 11 10 11 6 0 10 -2 10 -4z m280 -52 c0 -8 -4 -12 -10 -9
-5 3 -10 10 -10 16 0 5 5 9 10 9 6 0 10 -7 10 -16z m1644 -88 c27 -55 32 -76
18 -76 -9 0 -57 79 -57 95 -1 6 -6 20 -13 32 -17 32 -15 39 7 19 11 -10 31
-41 45 -70z m-1308 15 c-3 -5 -15 -7 -26 -4 -28 7 -25 13 6 13 14 0 23 -4 20
-9z m671 -61 c28 -52 28 -49 3 -43 -27 7 -64 59 -56 79 9 24 28 12 53 -36z
m-2922 -50 c3 -5 -3 -10 -14 -10 -12 0 -21 5 -21 10 0 6 6 10 14 10 8 0 18 -4
21 -10z m355 0 c0 -6 -8 -14 -17 -17 -10 -4 -20 -9 -23 -12 -3 -3 -22 -14 -42
-23 -21 -10 -38 -24 -38 -33 0 -19 -34 -20 -49 -2 -11 14 19 43 84 79 33 19
85 24 85 8z m3283 -60 c3 -11 2 -20 -3 -20 -8 0 -20 24 -20 41 0 17 17 1 23
-21z m-3483 -52 c0 -18 -2 -20 -9 -8 -6 8 -7 18 -5 22 9 14 14 9 14 -14z m387
-98 c29 -16 62 -30 73 -30 11 0 23 -6 26 -14 3 -8 34 -29 70 -47 35 -18 64
-37 64 -41 0 -4 7 -8 16 -8 9 0 29 -10 46 -21 16 -12 48 -31 71 -43 23 -12 51
-27 62 -33 11 -6 34 -17 50 -24 17 -7 37 -18 45 -25 44 -34 359 -184 457 -217
40 -14 86 -34 103 -44 l30 -19 -29 -40 c-16 -21 -48 -54 -70 -72 -23 -18 -41
-38 -41 -43 0 -6 -16 -32 -35 -57 -123 -163 -166 -236 -195 -333 -12 -41 -28
-88 -36 -104 -21 -50 -32 -113 -39 -235 -5 -82 -12 -120 -23 -133 -24 -27 -23
-246 2 -452 5 -42 26 -118 37 -130 4 -6 11 -31 14 -55 4 -25 22 -84 41 -131
19 -48 34 -93 34 -102 0 -16 63 -140 118 -232 34 -56 257 -285 316 -324 13 -9
50 -37 83 -62 53 -42 98 -69 163 -98 14 -6 32 -15 40 -20 35 -23 305 -109 345
-110 11 0 107 -1 213 -1 114 0 201 -4 212 -10 16 -8 28 -5 57 14 21 14 52 28
68 31 45 10 307 141 350 175 21 17 41 30 46 30 9 0 264 257 295 298 29 38 94
148 94 158 0 5 6 20 13 34 7 14 21 50 31 80 10 30 23 66 28 80 48 124 90 359
88 490 -1 25 -1 72 -1 105 1 33 -5 85 -13 114 -8 30 -11 71 -9 93 4 29 0 50
-20 86 -13 26 -28 62 -32 81 -4 19 -22 55 -39 80 -18 25 -38 69 -45 96 -8 28
-24 66 -36 85 -13 19 -25 47 -29 62 -3 15 -12 33 -19 40 -6 7 -23 34 -36 61
-13 26 -28 47 -32 47 -4 0 -10 9 -14 19 -3 11 -33 48 -65 83 -33 35 -60 67
-60 72 0 11 -171 176 -182 176 -4 0 -8 6 -8 13 0 6 32 27 70 45 67 33 120 73
208 160 l43 43 22 -23 c35 -38 97 -125 97 -136 0 -6 3 -12 8 -14 10 -5 39 -53
78 -135 18 -39 37 -73 41 -75 5 -1 17 -21 28 -43 11 -22 22 -42 26 -45 14 -13
107 -199 113 -227 4 -17 13 -37 21 -43 8 -6 23 -41 35 -78 12 -36 30 -78 41
-93 10 -14 16 -29 13 -32 -3 -2 18 -44 45 -93 28 -48 51 -98 51 -109 0 -12 4
-25 8 -31 5 -5 17 -36 26 -69 10 -33 24 -77 32 -99 8 -21 12 -46 9 -56 -3 -9
0 -30 6 -46 6 -16 13 -72 14 -126 2 -53 9 -115 15 -138 7 -24 8 -46 2 -53 -5
-7 -16 -64 -26 -127 -10 -63 -24 -146 -31 -185 -19 -98 -23 -124 -40 -258 -8
-64 -18 -123 -22 -130 -12 -19 -33 -80 -33 -99 0 -9 -11 -30 -25 -46 -14 -17
-25 -39 -25 -50 0 -40 -68 -139 -165 -240 -192 -199 -371 -326 -620 -438 -44
-19 -93 -43 -109 -51 -17 -9 -46 -20 -65 -24 -81 -17 -147 -36 -171 -49 -14
-8 -45 -17 -70 -21 -25 -4 -74 -12 -110 -19 -36 -6 -74 -12 -85 -12 -11 0 -42
-7 -68 -15 -26 -8 -71 -19 -100 -23 -51 -9 -105 -19 -209 -41 -76 -15 -345
-31 -548 -33 -166 -1 -368 13 -490 33 -30 5 -77 10 -105 10 -43 1 -122 24
-177 52 -10 5 -28 9 -41 9 -37 0 -138 39 -192 74 -27 18 -84 46 -125 61 -41
15 -82 34 -91 41 -8 8 -22 14 -31 14 -8 0 -18 3 -21 6 -13 13 -123 54 -145 54
-24 0 -112 46 -112 59 0 4 -15 15 -32 25 -37 21 -54 36 -187 165 -51 50 -98
91 -103 91 -6 0 -45 35 -88 78 -42 42 -129 124 -192 182 -65 59 -124 123 -136
146 -12 23 -45 72 -74 110 -63 85 -95 145 -104 192 -4 21 -10 42 -14 47 -24
33 -80 281 -80 357 0 35 -5 100 -10 144 -8 64 -7 94 4 140 8 33 20 117 26 188
6 71 15 137 19 145 5 9 6 21 4 27 -2 6 3 45 12 85 8 41 15 87 15 103 0 16 4
43 9 60 5 17 15 51 22 76 7 25 16 50 20 55 4 6 12 30 18 55 17 66 72 200 97
235 11 17 27 44 33 62 7 18 19 38 27 44 8 6 14 22 14 34 0 12 7 28 15 35 8 7
15 25 15 41 0 15 8 34 18 41 26 19 92 113 92 131 0 8 4 17 10 19 5 2 11 18 12
37 2 23 9 36 23 41 11 4 30 26 40 49 18 36 25 41 63 47 36 5 46 12 65 45 12
22 30 42 40 45 9 3 22 14 27 25 6 10 18 19 26 19 8 0 13 4 10 9 -7 11 68 71
88 71 9 0 16 5 16 11 0 5 5 7 10 4 7 -4 7 -12 0 -25 -14 -26 -13 -28 18 -35
28 -6 81 8 92 24 10 15 97 61 116 61 11 0 24 4 30 10 16 16 88 49 108 50 11 0
43 -13 73 -30z m-844 -360 c-3 -11 -7 -20 -9 -20 -2 0 -4 9 -4 20 0 11 4 20 9
20 5 0 7 -9 4 -20z m-112 -143 c-1 -12 -15 -9 -19 4 -3 6 1 10 8 8 6 -3 11 -8
11 -12z m2259 -127 c0 -6 28 -10 64 -10 44 0 67 -5 76 -15 7 -8 27 -15 45 -15
18 0 49 -7 69 -15 30 -13 36 -20 36 -44 0 -40 9 -60 33 -72 17 -10 19 -9 15 7
-3 11 -9 26 -12 35 -5 12 2 21 29 33 19 9 40 14 46 10 14 -8 315 -9 354 -1 26
6 33 3 54 -28 14 -21 32 -35 45 -36 21 0 21 0 -1 -9 -13 -5 -23 -14 -23 -21 0
-17 30 -122 40 -141 6 -10 10 -31 10 -47 0 -28 2 -29 35 -24 28 5 35 2 35 -11
0 -12 -7 -16 -22 -14 -25 3 -25 0 -15 -64 5 -35 4 -38 -19 -38 -13 0 -24 5
-24 10 0 6 -7 10 -15 10 -9 0 -21 11 -27 25 -6 14 -16 25 -22 25 -6 0 -5 4 3
9 9 6 11 18 6 40 -4 17 -11 28 -16 25 -6 -3 -16 -1 -23 5 -10 9 -15 8 -20 -4
-3 -9 0 -18 9 -20 52 -17 51 -16 28 -32 -18 -12 -20 -19 -12 -49 6 -19 7 -39
4 -44 -8 -14 -75 -13 -75 1 0 6 -10 25 -22 42 -13 18 -21 40 -20 49 2 10 -5
21 -15 25 -25 9 -38 32 -38 68 0 23 -5 31 -22 33 -20 3 -21 4 -6 31 15 26 15
29 -8 62 -13 19 -25 36 -26 38 -9 14 -11 -10 -4 -37 8 -26 7 -32 -6 -32 -10 0
-14 6 -10 20 3 11 1 18 -4 14 -5 -3 -9 0 -9 5 0 6 -4 11 -10 11 -14 0 -12 -34
2 -48 10 -10 10 -15 -2 -22 -19 -12 -3 -42 24 -46 45 -7 78 -74 36 -74 -11 0
-20 6 -21 13 0 9 -2 9 -6 0 -2 -7 5 -25 16 -39 12 -15 21 -34 21 -42 0 -9 7
-23 15 -32 8 -9 16 -38 17 -65 3 -45 1 -50 -24 -63 -16 -7 -28 -17 -28 -21 0
-5 -9 -11 -20 -14 -12 -3 -20 -14 -20 -26 0 -30 -38 -29 -38 2 -1 12 -6 48
-13 80 l-13 58 -35 -3 c-31 -3 -36 -7 -39 -32 -2 -16 1 -33 7 -39 7 -7 7 -15
1 -22 -7 -8 -6 -23 1 -44 6 -17 8 -38 5 -47 -5 -13 -10 -12 -34 6 -19 14 -40
20 -61 18 l-33 -3 20 -26 c23 -28 45 -129 32 -143 -12 -12 -30 2 -30 24 0 22
-18 36 -42 32 -26 -5 -32 18 -9 34 42 30 18 84 -30 69 -21 -7 -27 -59 -9 -70
6 -3 10 -16 10 -28 0 -13 7 -33 16 -46 15 -21 16 -42 9 -165 -4 -77 -7 -155
-6 -173 1 -37 -13 -50 -35 -32 -11 9 -12 14 -3 20 10 6 10 11 0 23 -11 13 -11
19 -1 31 16 19 17 109 2 128 -7 8 -15 38 -19 66 -3 32 -11 51 -19 51 -17 0
-30 60 -14 70 8 5 9 13 2 26 -5 11 -14 30 -20 44 -7 18 -25 31 -63 45 -36 13
-47 20 -34 23 11 2 30 8 43 14 19 10 20 14 8 27 -17 20 -38 82 -31 90 4 3 10
-1 15 -9 7 -12 10 -9 10 12 0 15 -6 33 -13 40 -8 7 -15 38 -16 68 -3 90 -45
178 -78 166 -8 -4 -13 3 -13 19 0 15 -6 25 -14 25 -22 0 -31 -22 -14 -34 8 -6
13 -17 10 -25 -2 -8 3 -18 12 -23 23 -13 20 -31 -5 -23 -16 5 -20 3 -17 -10 1
-9 6 -16 10 -16 4 0 24 -16 45 -35 30 -27 38 -42 38 -69 0 -38 -18 -43 -23 -7
-4 25 -12 28 -30 10 -19 -19 -15 -59 7 -65 24 -6 36 -50 20 -69 -9 -10 -9 -18
-2 -25 7 -7 8 -22 1 -46 -9 -31 -7 -38 17 -63 17 -17 23 -30 16 -34 -11 -7
-10 -40 2 -52 4 -4 7 -19 7 -34 0 -14 7 -35 15 -46 8 -10 15 -33 15 -51 0 -30
2 -32 43 -35 41 -3 41 -4 16 -15 -20 -9 -26 -19 -27 -47 -1 -20 3 -36 9 -36 6
0 9 -12 8 -27 -4 -43 19 -100 43 -106 16 -5 20 -12 16 -34 -3 -24 0 -29 15
-29 27 1 31 -55 5 -62 -10 -2 -18 -8 -18 -12 0 -13 29 -32 39 -26 5 3 7 -3 4
-14 -3 -13 5 -33 22 -56 25 -33 26 -36 9 -48 -16 -12 -12 -42 5 -31 5 2 16 -2
27 -9 16 -12 16 -16 5 -30 -12 -14 -11 -19 5 -30 26 -19 37 -9 30 25 -4 19 -1
29 7 29 21 0 37 -16 42 -39 2 -13 9 -29 16 -37 12 -15 10 -16 -33 -18 -40 -2
-29 -21 12 -21 34 0 90 -29 90 -46 0 -4 19 -17 43 -27 23 -10 56 -30 72 -44
l30 -26 -7 -178 c-7 -157 -6 -180 8 -189 38 -24 43 -33 45 -80 3 -46 2 -50
-19 -47 -12 2 -22 -1 -22 -6 0 -5 -11 -14 -25 -20 -33 -15 -23 -40 16 -37 16
1 32 5 36 9 11 11 35 6 31 -6 -7 -21 -80 -28 -106 -11 -36 23 -51 11 -47 -39
2 -34 7 -44 23 -46 24 -4 112 34 112 48 0 5 6 7 14 4 7 -3 13 -13 12 -21 0
-10 9 -19 24 -23 20 -5 25 -12 23 -33 -1 -18 3 -27 13 -27 8 0 17 -6 20 -14 3
-8 12 -12 20 -9 14 5 10 48 -6 66 -4 5 -3 27 2 49 6 27 5 45 -2 52 -5 5 -10
20 -10 32 0 12 -11 29 -24 38 -18 11 -28 31 -36 71 -14 70 -10 97 16 110 12 6
29 17 37 24 21 16 37 6 37 -23 0 -33 11 -39 27 -16 19 27 8 150 -13 150 -8 0
-14 5 -14 10 0 6 -6 10 -12 10 -7 0 -25 17 -40 38 -24 34 -30 37 -66 34 l-39
-4 0 41 c0 45 3 48 26 27 13 -12 26 -13 60 -5 47 10 57 6 63 -26 5 -28 38 -33
38 -5 0 27 48 69 80 70 23 0 25 -4 27 -52 1 -28 7 -56 13 -62 5 -5 10 -18 10
-27 0 -23 11 -29 37 -23 17 5 19 12 16 62 -2 31 -9 78 -14 104 -12 51 -5 88
15 88 7 0 19 12 26 26 8 14 22 30 31 35 22 11 49 2 43 -16 -7 -17 32 -129 47
-134 8 -2 9 1 4 10 -10 15 -13 259 -4 259 4 0 10 11 13 25 6 25 29 36 24 13
-1 -7 1 -23 5 -35 7 -18 17 -85 54 -336 3 -20 9 -40 15 -43 5 -4 5 -11 -1 -18
-7 -9 -7 -22 1 -44 16 -42 -2 -65 -30 -39 -28 26 -38 20 -34 -18 3 -22 12 -40
23 -46 11 -5 19 -19 19 -29 0 -23 4 -24 32 -9 18 9 24 8 35 -7 7 -10 13 -21
13 -26 0 -12 -58 -10 -65 2 -12 20 -24 -1 -30 -55 -6 -41 -3 -64 8 -88 20 -42
24 -106 8 -135 -7 -13 -32 -33 -56 -43 -24 -11 -47 -24 -50 -29 -3 -6 -13 -10
-22 -10 -9 0 -24 -7 -32 -15 -9 -8 -35 -17 -57 -21 -38 -6 -42 -4 -48 20 -3
14 -11 26 -16 26 -5 0 -12 22 -16 49 -8 62 -33 91 -79 91 -42 0 -48 -25 -11
-42 18 -7 25 -19 25 -37 -1 -50 14 -121 25 -121 11 -1 -33 -29 -46 -30 -4 0
-14 7 -23 17 -10 10 -19 12 -23 6 -11 -16 -89 -25 -96 -10 -5 9 -7 9 -12 0 -9
-20 -44 -15 -65 9 -12 15 -18 17 -17 8 3 -18 -47 -27 -65 -12 -7 6 -28 13 -48
17 -51 9 -99 54 -89 81 5 12 20 24 33 28 47 11 46 61 -1 50 l-27 -6 23 16 c26
20 29 51 5 65 -15 8 -16 12 -5 22 6 7 12 20 12 29 0 9 15 20 37 27 40 12 53 6
53 -29 0 -26 13 -22 26 7 9 19 9 27 -2 36 -11 9 -12 15 -3 26 9 11 8 16 -4 26
-9 7 -19 26 -21 42 -2 17 -7 38 -11 49 -5 11 -3 21 4 25 8 5 6 13 -8 25 -11
10 -17 25 -14 37 8 27 -15 53 -34 38 -10 -9 -17 -9 -25 -1 -7 7 -8 13 -3 13 6
1 17 2 25 3 8 0 16 11 18 24 4 25 3 26 -34 12 -21 -8 -29 -8 -36 2 -15 24 -8
31 27 25 38 -6 45 2 18 24 -50 40 -96 50 -107 24 -3 -8 -2 -15 2 -15 13 0 30
-49 25 -70 -3 -11 0 -20 6 -20 6 0 11 -4 11 -10 0 -5 -7 -10 -15 -10 -8 0 -15
-4 -15 -9 0 -16 22 -25 52 -23 15 1 28 -2 28 -8 0 -5 -10 -10 -22 -10 -22 -1
-22 -1 -5 -14 18 -14 18 -15 0 -25 -16 -9 -16 -10 6 -11 18 0 22 -4 18 -20 -4
-16 0 -20 19 -20 18 0 24 -5 24 -21 0 -20 -4 -21 -60 -16 -33 3 -62 2 -65 -3
-7 -11 32 -20 88 -20 34 0 47 -4 45 -12 -6 -16 -97 -23 -111 -9 -13 13 -27 14
-27 2 0 -5 9 -13 20 -16 38 -12 20 -24 -30 -21 -27 2 -47 0 -44 -5 3 -5 18 -9
34 -9 17 0 30 -7 34 -16 12 -31 2 -31 -54 1 -36 21 -37 10 -1 -21 27 -23 31
-31 25 -60 -5 -27 -3 -34 10 -34 18 0 19 -2 7 -52 -6 -23 -5 -40 2 -47 6 -6 8
-13 4 -17 -7 -7 -137 75 -137 87 0 5 9 9 19 9 22 0 35 24 32 58 -2 13 3 30 10
38 9 11 9 18 -3 32 -8 9 -14 33 -13 55 1 20 -4 42 -11 48 -8 7 -11 22 -7 40 4
22 2 29 -11 29 -9 0 -16 -7 -16 -15 0 -11 -11 -15 -36 -15 -35 0 -36 -1 -30
-27 4 -16 9 -57 13 -93 3 -36 10 -70 14 -76 26 -32 -26 -60 -52 -28 -7 8 -29
24 -48 35 -39 22 -96 61 -123 86 -10 9 -18 30 -18 48 0 33 -37 85 -61 85 -7 0
-9 9 -6 22 6 22 -7 48 -24 48 -5 0 -9 -8 -9 -18 0 -32 -19 -41 -51 -25 -32 16
-37 34 -14 53 11 9 13 16 6 23 -7 7 -7 15 1 24 16 19 2 28 -44 28 -38 0 -40 2
-61 50 -11 28 -24 52 -27 55 -13 12 -50 110 -80 215 -28 98 -49 468 -41 700 2
38 2 39 17 20 9 -13 12 -30 8 -49 -4 -18 -3 -26 4 -22 20 12 25 -17 6 -31 -19
-14 -19 -14 0 -28 17 -13 17 -15 3 -21 -10 -3 -17 -14 -17 -24 0 -14 9 -17 48
-17 26 0 58 -3 71 -8 24 -8 24 -7 18 36 -4 31 -14 51 -33 68 -26 22 -27 24
-10 36 17 13 17 14 -3 25 -12 6 -21 18 -21 28 -1 9 -10 28 -20 41 -17 19 -23
21 -35 11 -19 -15 -32 -6 -18 12 6 7 13 26 17 42 5 21 11 27 26 23 16 -4 18 0
14 31 -2 20 -9 41 -14 46 -13 13 -13 43 1 48 5 2 13 39 16 83 4 46 12 85 20
93 7 7 13 20 13 28 0 8 10 15 23 15 l22 2 -22 4 c-28 5 -29 14 -3 35 11 10 22
30 26 45 4 15 22 48 40 72 19 24 34 50 34 56 0 7 25 36 55 64 30 29 55 54 55
57 0 10 54 54 66 54 8 0 14 5 14 10 0 6 9 10 20 10 11 0 20 -4 20 -10z m1173
-75 c20 -14 37 -34 37 -44 0 -12 13 -24 38 -34 48 -19 62 -36 68 -84 3 -21 12
-52 20 -70 8 -17 14 -40 14 -50 0 -10 4 -23 9 -28 5 -6 14 -35 19 -65 21 -103
40 -181 49 -193 11 -14 35 -81 57 -162 10 -33 24 -76 33 -95 8 -19 17 -58 20
-87 4 -37 11 -54 23 -58 11 -3 17 -17 17 -38 2 -47 14 -101 26 -109 6 -3 12
-17 14 -30 2 -13 6 -41 9 -63 13 -85 16 -145 6 -145 -12 0 -25 34 -48 125 -16
59 -41 105 -59 105 -15 0 1 -104 25 -165 26 -67 31 -85 25 -108 -4 -14 -1 -35
5 -47 6 -12 8 -29 4 -38 -13 -30 -15 -46 -14 -94 1 -52 -4 -58 -40 -51 -23 4
-25 9 -27 60 -1 30 -3 57 -5 58 -2 2 -15 6 -31 10 -26 7 -27 6 -27 -30 0 -47
28 -145 41 -145 6 0 9 -12 8 -27 -3 -34 8 -94 26 -148 8 -22 14 -47 15 -55 4
-57 8 -81 13 -87 4 -3 7 -29 7 -57 0 -44 -5 -56 -33 -86 -27 -29 -72 -67 -117
-100 -3 -3 -9 -13 -13 -22 -3 -10 -13 -18 -20 -18 -8 0 -22 -9 -32 -20 -10
-11 -26 -20 -37 -20 -10 0 -18 -7 -18 -15 0 -8 -9 -15 -20 -15 -27 0 -25 11 5
44 17 18 25 39 25 59 0 18 2 47 6 66 4 22 2 36 -6 41 -20 13 6 47 42 55 22 5
35 3 42 -6 6 -8 25 -15 42 -16 31 -2 32 -2 23 35 -4 20 -15 51 -24 68 -8 18
-16 55 -16 84 -1 34 -6 53 -15 57 -8 3 -14 13 -14 22 0 10 -11 23 -24 29 -17
8 -25 21 -29 49 -2 21 -8 49 -12 63 -8 24 -7 24 11 8 18 -16 19 -15 18 34 -1
28 -6 53 -11 57 -6 3 -13 16 -17 29 -4 12 -14 22 -21 22 -10 0 -13 10 -9 40 4
31 1 40 -10 40 -13 0 -14 4 -5 24 9 18 7 31 -5 57 -8 19 -15 50 -14 69 0 19 1
71 1 115 0 44 0 129 0 189 1 78 -2 111 -11 114 -7 2 -12 18 -12 36 0 18 -3 36
-7 40 -4 3 -8 12 -9 19 -1 7 -16 36 -33 65 -17 29 -31 61 -31 72 0 10 -3 20
-7 22 -5 2 -17 21 -28 43 -11 22 -37 67 -57 100 -21 33 -38 66 -38 74 0 7 -6
11 -14 8 -16 -6 -26 31 -21 78 4 35 -10 55 -39 55 -19 1 -19 2 -3 11 23 13 22
46 -2 59 -17 8 -18 15 -10 42 6 21 5 54 -3 95 -15 82 -9 87 89 90 42 1 78 5
81 8 12 12 50 3 85 -20z m249 -212 c33 -32 67 -71 75 -88 9 -16 22 -34 30 -38
8 -5 11 -16 8 -27 -3 -10 -1 -21 5 -25 6 -4 8 -15 5 -26 -4 -13 -2 -19 9 -19
20 0 21 -16 2 -23 -8 -3 -17 1 -20 9 -3 9 -10 12 -16 9 -14 -8 -13 -42 1 -47
7 -2 13 -19 15 -37 3 -19 14 -43 27 -53 12 -11 21 -25 19 -30 -1 -6 3 -17 10
-25 7 -9 11 -26 10 -38 -2 -12 4 -28 12 -35 11 -9 16 -30 16 -71 0 -32 5 -61
10 -64 6 -3 10 -17 10 -29 0 -13 6 -29 14 -35 8 -7 17 -30 21 -52 4 -22 13
-43 21 -46 9 -3 12 -13 8 -28 -8 -31 15 -44 33 -19 12 16 15 17 23 4 5 -8 10
-23 10 -32 0 -9 5 -20 10 -23 6 -3 10 -24 10 -45 0 -32 6 -43 30 -60 17 -12
30 -30 30 -42 0 -37 -23 -148 -31 -148 -7 0 -25 107 -21 124 2 4 -3 15 -9 23
-7 8 -17 46 -23 85 -9 59 -15 72 -33 79 -20 7 -23 5 -23 -19 0 -15 9 -63 20
-106 10 -44 17 -83 14 -88 -3 -5 -1 -14 4 -21 5 -7 10 -46 11 -87 1 -41 3 -76
5 -77 7 -8 46 12 46 23 0 8 5 14 10 14 12 0 13 -67 1 -74 -5 -3 -11 -23 -14
-43 -13 -102 -57 -189 -57 -114 0 16 -5 33 -11 37 -6 3 -8 17 -5 30 4 13 2 24
-4 24 -5 0 -9 10 -9 23 1 36 -22 201 -31 218 -5 9 -18 60 -30 115 -11 54 -25
101 -29 104 -5 3 -11 43 -15 90 -5 50 -14 95 -24 110 -9 14 -17 39 -19 55 -2
17 -9 44 -17 60 -8 17 -20 44 -27 60 -7 17 -22 41 -32 54 -11 16 -14 28 -8 34
14 14 2 66 -22 100 -11 16 -19 41 -19 55 0 15 -7 36 -14 47 -8 11 -14 29 -14
41 0 12 -7 27 -15 34 -8 6 -14 19 -13 28 4 33 -14 92 -28 92 -8 0 -14 10 -14
23 0 13 -7 32 -15 43 -8 10 -15 25 -15 32 0 26 34 9 92 -45z m331 -749 c8 -8
-3 -34 -14 -34 -5 0 -9 9 -9 20 0 19 11 26 23 14z m-1593 -140 c0 -8 -5 -12
-10 -9 -6 4 -8 11 -5 16 9 14 15 11 15 -7z m1500 -306 c0 -6 -7 -5 -15 2 -8 7
-15 17 -15 22 0 6 7 5 15 -2 8 -7 15 -17 15 -22z m-1322 -39 c-2 -6 -8 -10
-13 -10 -5 0 -11 4 -13 10 -2 6 4 11 13 11 9 0 15 -5 13 -11z m1327 -148 c-8
-32 -9 -33 -29 -25 -19 7 -21 45 -4 62 19 19 41 -6 33 -37z m-71 -96 c10 -7
15 -19 11 -25 -11 -17 23 -60 48 -61 20 0 19 -2 -5 -11 -35 -12 -35 -25 -3
-40 27 -12 32 -24 13 -31 -10 -4 -10 -7 0 -18 10 -11 8 -17 -10 -31 -19 -14
-20 -18 -6 -18 29 0 30 -19 1 -55 -32 -40 -48 -44 -48 -12 -1 12 -4 34 -8 50
-6 23 -4 27 13 27 16 0 20 5 16 18 -2 9 -8 33 -11 52 -4 19 -17 43 -28 52 -18
14 -20 19 -9 29 17 18 15 39 -3 39 -15 0 -21 31 -8 43 9 10 15 8 37 -8z m142
-90 c9 -23 -5 -65 -21 -65 -16 0 -30 42 -21 65 3 8 12 15 21 15 9 0 18 -7 21
-15z m-1069 -137 c-3 -8 -6 -5 -6 6 -1 11 2 17 5 13 3 -3 4 -12 1 -19z m12
-47 c7 -13 5 -24 -6 -41 -14 -20 -17 -21 -25 -6 -11 20 0 79 13 71 5 -4 13
-14 18 -24z"/>
<path d="M4535 3578 c9 -41 12 -45 27 -30 7 7 20 12 31 12 25 0 16 24 -11 28
-12 2 -22 8 -22 13 0 5 -7 9 -16 9 -12 0 -14 -7 -9 -32z"/>
<path d="M4577 3513 c-13 -12 -7 -41 10 -47 22 -9 36 7 28 33 -6 21 -25 28
-38 14z"/>
<path d="M4910 3510 c-8 -5 -12 -12 -8 -15 8 -8 58 5 58 16 0 12 -31 11 -50
-1z"/>
<path d="M4315 3462 c6 -5 21 -13 34 -17 17 -5 22 -4 19 6 -3 8 -18 15 -34 17
-19 2 -25 0 -19 -6z"/>
<path d="M4573 3418 c8 -28 -9 -48 -41 -48 -14 0 -22 -3 -18 -7 4 -4 23 -6 43
-4 32 2 35 0 30 -18 -5 -21 29 -101 44 -101 5 0 9 -5 9 -11 0 -5 9 -30 20 -55
17 -35 18 -48 9 -65 -6 -12 -7 -24 -3 -28 25 -18 36 -41 25 -54 -15 -19 21
-57 49 -50 26 7 26 48 0 88 -14 21 -18 39 -14 61 4 25 2 34 -13 42 -17 10 -17
11 1 25 19 14 19 15 0 39 -10 13 -36 39 -56 57 -21 18 -38 41 -38 50 0 10 -6
26 -14 37 -8 10 -12 29 -9 42 4 16 1 22 -12 22 -13 0 -16 -6 -12 -22z"/>
<path d="M4756 3403 c4 -21 13 -42 21 -46 7 -5 12 -11 9 -15 -2 -4 1 -50 8
-102 l12 -95 38 -3 39 -3 -7 42 c-4 24 -11 48 -16 54 -5 6 -7 21 -4 32 4 13
-3 33 -16 52 -13 16 -24 44 -25 62 -3 33 -26 59 -52 59 -11 0 -12 -9 -7 -37z"/>
<path d="M5175 3390 c-8 -13 4 -32 16 -25 12 8 12 35 0 35 -6 0 -13 -4 -16
-10z"/>
<path d="M4520 3300 c0 -5 5 -10 10 -10 6 0 10 5 10 10 0 6 -4 10 -10 10 -5 0
-10 -4 -10 -10z"/>
<path d="M4531 3254 c0 -11 3 -14 6 -6 3 7 2 16 -1 19 -3 4 -6 -2 -5 -13z"/>
<path d="M4537 3188 c-3 -9 1 -24 8 -35 11 -14 14 -15 14 -3 0 8 -4 24 -8 34
-6 17 -8 17 -14 4z"/>
<path d="M4070 3153 c0 -22 47 -46 56 -31 4 6 -4 19 -17 29 -30 23 -39 24 -39
2z"/>
<path d="M4238 3160 c26 -11 28 -25 7 -38 -13 -7 -12 -12 10 -32 30 -28 51
-16 41 24 -8 33 -33 56 -59 55 l-22 0 23 -9z"/>
<path d="M4087 3084 c-4 -4 -7 -15 -7 -24 0 -23 30 -81 39 -76 10 7 5 67 -7
75 -5 3 -11 12 -13 19 -3 7 -8 10 -12 6z"/>
<path d="M4580 3073 c0 -17 38 -127 39 -114 1 8 8 22 16 31 14 15 12 20 -20
54 -19 21 -35 34 -35 29z"/>
<path d="M4250 3051 c0 -10 -6 -21 -13 -24 -9 -3 -12 -19 -10 -49 4 -59 9 -67
33 -61 17 4 19 2 13 -13 -4 -11 -14 -24 -22 -30 -13 -10 -13 -15 2 -38 10 -14
17 -28 17 -31 0 -3 6 -13 15 -21 14 -15 14 -17 -2 -29 -14 -11 -15 -16 -6 -26
9 -9 9 -18 2 -32 -9 -15 -6 -24 15 -46 18 -19 23 -30 16 -41 -15 -24 -12 -27
33 -35 l42 -8 -32 -10 c-32 -10 -40 -22 -25 -42 9 -13 42 -34 64 -41 16 -6 14
-11 -13 -45 l-30 -38 38 -16 c21 -9 48 -13 60 -10 l23 5 -21 21 c-17 17 -20
29 -15 59 4 26 2 41 -8 50 -8 6 -12 18 -9 26 3 8 0 14 -6 14 -6 0 -11 9 -11
20 0 14 5 18 16 13 12 -4 15 -2 12 8 -3 8 -11 14 -19 14 -22 0 -40 44 -26 66
8 13 8 24 -3 45 -12 21 -12 28 -2 31 18 7 15 42 -11 109 -13 32 -22 65 -19 73
3 8 -1 19 -9 25 -18 15 -39 52 -39 69 0 15 -33 57 -44 57 -3 0 -6 -9 -6 -19z
m17 -80 c1 -11 -4 -22 -12 -25 -17 -6 -18 -2 -9 32 7 25 16 22 21 -7z"/>
<path d="M4145 3011 c-3 -5 -1 -12 5 -16 5 -3 10 1 10 9 0 18 -6 21 -15 7z"/>
<path d="M4107 2949 c-12 -7 -15 -15 -8 -27 11 -21 25 -101 22 -124 -1 -9 3
-19 9 -23 8 -5 7 -11 -2 -22 -10 -12 -9 -17 5 -28 9 -7 17 -23 17 -36 -2 -76
45 -219 71 -219 7 0 9 -12 7 -30 -5 -34 13 -56 38 -46 10 4 13 13 9 26 -4 12
-1 27 5 35 10 12 9 15 -5 15 -14 0 -16 6 -12 29 6 30 -9 51 -45 64 -22 8 -23
23 -3 31 21 8 19 46 -2 46 -13 0 -14 3 -5 12 17 17 15 48 -3 48 -20 0 -19 16
1 24 8 3 13 10 10 15 -3 5 -8 34 -10 65 -4 58 -18 86 -42 86 -9 0 -14 12 -14
35 0 37 -11 43 -43 24z"/>
<path d="M4090 2560 c0 -5 10 -10 23 -10 18 0 19 2 7 10 -19 13 -30 13 -30 0z"/>
<path d="M4010 2553 c0 -5 7 -17 15 -27 13 -17 15 -18 15 -3 0 9 5 17 10 17
14 0 12 -16 -4 -33 -13 -13 -12 -17 8 -36 12 -11 28 -21 34 -21 14 0 15 -10 3
-29 -8 -12 -14 -13 -37 -2 -18 8 -30 9 -37 2 -11 -11 -1 -17 38 -23 13 -2 20
-11 20 -25 0 -12 3 -25 7 -29 4 -4 3 -13 -3 -21 -15 -17 31 -65 66 -69 30 -3
31 0 4 38 -19 26 -21 40 -17 105 5 68 4 74 -13 70 -20 -5 -36 24 -24 44 11 17
-26 49 -57 49 -15 0 -28 -3 -28 -7z"/>
<path d="M4125 2521 c-3 -5 -1 -12 5 -16 5 -3 10 1 10 9 0 18 -6 21 -15 7z"/>
<path d="M4240 2365 c-10 -12 -9 -20 4 -40 9 -14 14 -30 11 -35 -7 -11 15 -60
27 -60 14 0 22 30 10 42 -6 6 -8 26 -5 44 3 20 1 40 -7 49 -16 19 -24 19 -40
0z"/>
<path d="M4381 2326 c-10 -12 -8 -17 8 -26 12 -6 21 -20 21 -32 0 -34 42 -117
62 -124 19 -6 48 11 48 27 0 5 -12 9 -26 9 -23 0 -25 3 -19 30 4 19 2 36 -5
45 -7 8 -10 25 -7 37 5 18 0 26 -20 36 -35 16 -48 15 -62 -2z"/>
<path d="M4505 2210 c3 -5 8 -10 11 -10 2 0 4 5 4 10 0 6 -5 10 -11 10 -5 0
-7 -4 -4 -10z"/>
<path d="M4300 2174 c0 -15 26 -19 34 -5 3 5 -3 11 -14 14 -13 3 -20 0 -20 -9z"/>
<path d="M4160 2121 c0 -6 5 -13 10 -16 6 -3 10 1 10 9 0 9 -4 16 -10 16 -5 0
-10 -4 -10 -9z"/>
<path d="M4480 2105 c7 -8 16 -15 21 -15 5 0 9 7 9 15 0 9 -9 15 -21 15 -18 0
-19 -2 -9 -15z"/>
<path d="M4320 2070 c0 -5 4 -10 9 -10 6 0 13 5 16 10 3 6 -1 10 -9 10 -9 0
-16 -4 -16 -10z"/>
<path d="M4182 2058 c-11 -11 8 -79 30 -106 10 -11 7 -18 -12 -33 -27 -20 -26
-20 23 -22 31 -1 32 1 33 41 0 28 -4 42 -13 42 -15 0 -46 57 -38 70 8 13 -10
21 -23 8z"/>
<path d="M4342 2033 c2 -11 14 -19 31 -21 31 -4 36 12 8 28 -29 15 -43 12 -39
-7z"/>
<path d="M4476 2001 c-3 -4 5 -13 18 -19 14 -6 27 -20 31 -31 9 -28 45 -29 38
-1 -3 11 -9 20 -14 20 -5 0 -9 6 -9 14 0 22 -53 36 -64 17z"/>
<path d="M4410 1989 c0 -5 -8 -9 -17 -8 -34 3 -43 -1 -43 -19 0 -19 18 -42 32
-42 4 0 8 7 8 16 0 9 9 18 20 21 20 5 29 43 10 43 -5 0 -10 -5 -10 -11z"/>
<path d="M4574 1911 c-9 -10 -23 -17 -30 -14 -8 3 -14 0 -14 -6 0 -7 8 -15 18
-18 9 -4 22 -13 28 -22 6 -8 18 -12 28 -8 18 7 22 27 5 27 -7 0 -9 10 -5 24 8
32 -9 42 -30 17z"/>
<path d="M4105 1907 c-4 -10 -3 -23 4 -30 16 -16 23 -3 12 24 -8 22 -10 22
-16 6z"/>
<path d="M4420 1880 c0 -5 5 -10 11 -10 5 0 7 5 4 10 -3 6 -8 10 -11 10 -2 0
-4 -4 -4 -10z"/>
<path d="M4250 1869 c0 -5 5 -7 10 -4 6 3 10 8 10 11 0 2 -4 4 -10 4 -5 0 -10
-5 -10 -11z"/>
<path d="M4401 1864 c0 -11 3 -14 6 -6 3 7 2 16 -1 19 -3 4 -6 -2 -5 -13z"/>
<path d="M4232 1829 c2 -6 8 -10 13 -10 5 0 11 4 13 10 2 6 -4 11 -13 11 -9 0
-15 -5 -13 -11z"/>
<path d="M4394 1827 c-9 -24 24 -115 49 -132 18 -13 20 -18 10 -34 -10 -15 -9
-35 2 -93 7 -40 16 -80 19 -88 2 -8 7 -28 11 -43 4 -20 10 -27 20 -23 8 3 21
-4 29 -16 16 -23 36 -16 36 12 0 11 -9 20 -22 23 -21 4 -20 4 3 6 31 1 44 24
25 41 -16 12 -36 85 -36 128 0 16 -6 35 -14 41 -8 6 -19 24 -26 40 -6 16 -23
34 -37 40 -21 10 -23 14 -13 27 11 12 10 17 -2 27 -8 7 -22 23 -31 36 -14 21
-17 22 -23 8z"/>
<path d="M4573 1787 c-9 -19 -7 -27 14 -45 16 -14 36 -21 55 -20 31 2 51 18
24 18 -9 0 -15 6 -13 13 1 7 -8 11 -26 10 -24 -2 -26 1 -21 23 8 32 -19 33
-33 1z"/>
<path d="M4262 1789 c2 -7 10 -15 17 -17 8 -3 12 1 9 9 -2 7 -10 15 -17 17 -8
3 -12 -1 -9 -9z"/>
<path d="M4250 1739 c0 -11 47 -12 54 -1 3 5 -8 9 -24 10 -17 0 -30 -4 -30 -9z"/>
<path d="M4320 1740 c0 -5 5 -10 10 -10 6 0 10 5 10 10 0 6 -4 10 -10 10 -5 0
-10 -4 -10 -10z"/>
<path d="M4631 1661 c-16 -10 -6 -31 14 -31 14 0 27 24 18 34 -8 8 -15 7 -32
-3z"/>
<path d="M5416 1641 c-4 -6 -4 -16 0 -23 4 -7 3 -8 -4 -4 -8 5 -12 -1 -12 -18
0 -14 5 -28 10 -31 6 -3 10 -19 10 -35 0 -16 4 -31 10 -35 5 -3 12 -33 16 -66
4 -32 10 -62 15 -64 4 -3 11 -31 14 -63 9 -69 29 -107 53 -96 9 4 28 7 42 8
33 1 42 45 11 53 -20 5 -28 32 -14 47 9 9 4 89 -7 96 -4 3 -15 19 -24 37 -9
18 -25 37 -36 43 -11 6 -20 17 -20 24 0 8 -7 16 -15 20 -8 3 -15 16 -15 30 0
33 -26 91 -34 77z"/>
<path d="M4585 1610 c-9 -15 -1 -23 21 -18 15 3 16 4 1 16 -11 9 -17 10 -22 2z"/>
<path d="M5220 1461 c0 -51 33 -49 37 2 1 21 -3 27 -18 27 -14 0 -19 -7 -19
-29z"/>
<path d="M5230 1394 c0 -8 6 -11 15 -8 11 5 15 -1 15 -25 0 -24 4 -31 20 -31
22 0 25 16 11 53 -7 17 -17 25 -35 25 -15 0 -26 -6 -26 -14z"/>
<path d="M5015 1380 c-3 -5 3 -10 14 -10 12 0 21 5 21 10 0 6 -6 10 -14 10 -8
0 -18 -4 -21 -10z"/>
<path d="M5047 1183 c-8 -7 63 -55 75 -51 6 2 -8 16 -30 30 -22 15 -42 24 -45
21z"/>
<path d="M5505 3510 c-3 -5 1 -10 9 -10 9 0 16 5 16 10 0 6 -4 10 -9 10 -6 0
-13 -4 -16 -10z"/>
<path d="M5538 3380 c2 -16 9 -30 14 -30 5 0 6 10 3 23 -11 35 -22 40 -17 7z"/>
<path d="M5567 3333 c-7 -12 8 -103 22 -137 9 -23 14 -26 26 -16 13 11 13 16
-2 44 -31 59 -33 65 -24 71 5 3 7 14 4 25 -5 20 -18 26 -26 13z"/>
<path d="M5670 3301 c0 -6 5 -13 10 -16 6 -3 10 1 10 9 0 9 -4 16 -10 16 -5 0
-10 -4 -10 -9z"/>
<path d="M5690 3208 c1 -79 39 -142 80 -131 11 3 20 7 20 10 0 2 -18 28 -40
58 -22 30 -40 61 -40 70 0 8 -4 15 -10 15 -5 0 -10 -10 -10 -22z"/>
<path d="M5611 3166 c-9 -11 -9 -20 -2 -35 6 -11 11 -38 11 -60 0 -37 26 -101
42 -101 13 0 14 46 1 95 -7 28 -13 60 -13 71 0 31 -24 48 -39 30z"/>
<path d="M5757 3054 c-10 -10 4 -117 19 -146 8 -15 14 -34 14 -43 0 -8 4 -23
9 -33 28 -54 41 -92 46 -134 3 -26 13 -55 21 -63 9 -8 13 -19 10 -23 -3 -5 1
-26 9 -48 9 -27 20 -40 35 -42 20 -3 20 -5 7 -20 -13 -14 -13 -20 -3 -35 8
-10 20 -15 30 -11 19 7 21 25 4 42 -6 6 -11 36 -10 66 1 48 -2 58 -24 75 -19
15 -24 26 -19 41 4 13 1 22 -9 26 -11 4 -13 14 -10 34 5 21 1 31 -13 38 -14 8
-19 20 -17 44 3 34 -19 68 -43 68 -10 0 -13 19 -13 73 0 77 -18 116 -43 91z"/>
<path d="M5660 2923 c0 -10 7 -40 15 -67 8 -27 15 -64 15 -81 0 -18 6 -38 14
-44 10 -8 12 -24 9 -51 -5 -37 -4 -40 18 -40 22 0 22 -1 4 -14 -16 -12 -17
-16 -6 -30 7 -9 17 -14 21 -11 4 3 13 -2 20 -10 37 -44 48 12 16 79 -14 30
-26 69 -26 85 0 17 -4 31 -10 31 -5 0 -10 9 -10 20 0 11 -7 20 -15 20 -11 0
-14 7 -9 25 3 14 1 32 -6 40 -6 8 -10 20 -8 27 5 12 -18 37 -34 38 -5 0 -8 -8
-8 -17z"/>
<path d="M5776 2538 c-12 -38 -13 -59 -4 -64 14 -9 28 15 28 49 0 27 -17 38
-24 15z"/>
<path d="M5792 2393 c8 -10 15 -25 15 -33 0 -8 12 -56 26 -106 15 -57 21 -96
16 -101 -14 -14 -1 -41 23 -49 23 -7 23 -7 32 28 4 17 1 32 -9 42 -8 8 -15 26
-15 41 0 14 -8 43 -19 65 -14 28 -16 41 -7 50 8 8 6 15 -10 28 -12 9 -24 25
-27 35 -4 9 -14 17 -23 17 -15 0 -16 -2 -2 -17z"/>
<path d="M5920 2160 c0 -5 5 -10 10 -10 6 0 10 5 10 10 0 6 -4 10 -10 10 -5 0
-10 -4 -10 -10z"/>
<path d="M5820 1447 c0 -8 7 -20 15 -27 12 -10 15 -10 15 3 0 8 -7 20 -15 27
-12 10 -15 10 -15 -3z"/>
<path d="M5836 1387 c3 -10 9 -15 12 -12 3 3 0 11 -7 18 -10 9 -11 8 -5 -6z"/>
</g>
</svg>
